<svg width="200" height="49" viewBox="0 0 200 49" fill="none" xmlns="http://www.w3.org/2000/svg">
<path d="M12.5231 47.2C12.0231 47.2 11.5231 47.175 11.0231 47.125C10.5231 47.125 10.0481 47.1 9.59815 47.05H9.44814C9.09814 47 8.44814 46.925 7.49815 46.825C6.59814 46.775 5.62314 46.675 4.57314 46.525C3.52315 46.375 2.62314 46.15 1.87314 45.85C1.12314 45.55 0.723145 45.175 0.673145 44.725C0.623145 44.475 0.798145 44.35 1.19814 44.35C1.59814 44.3 1.84814 44.275 1.94814 44.275C3.24814 44.275 4.52314 44.35 5.77315 44.5L7.79814 44.725C7.74814 44.425 7.67314 44.15 7.57315 43.9C7.52315 43.65 7.49815 43.425 7.49815 43.225C7.49815 43.025 7.47315 42.85 7.42315 42.7C7.42315 42.5 7.42315 42.3 7.42315 42.1C7.42315 39.95 7.89814 37.5 8.84814 34.75C9.79815 31.95 11.0231 29.05 12.5231 26.05C14.0731 23.05 15.7231 20.125 17.4731 17.275C19.2231 14.375 20.9481 11.775 22.6481 9.475C24.3481 7.125 25.8231 5.25 27.0731 3.85C26.4231 3.8 25.7731 3.775 25.1231 3.775C24.5231 3.775 23.8731 3.775 23.1731 3.775C21.8731 3.775 20.3231 3.825 18.5231 3.925C16.7231 3.975 15.1981 4.2 13.9481 4.6C13.4481 4.75 12.9481 4.9 12.4481 5.05C11.9481 5.2 11.4231 5.275 10.8731 5.275C10.8231 5.275 10.6731 5.275 10.4231 5.275C10.1731 5.225 10.0481 5.125 10.0481 4.975C9.94815 4.025 10.3981 3.25 11.3981 2.65C12.3981 2 13.5981 1.5 14.9981 1.15C16.4481 0.749998 17.8231 0.474999 19.1231 0.324998C20.4731 0.174997 21.4481 0.0999964 22.0481 0.0999964C23.4981 0.0999964 25.3981 0.199997 27.7481 0.399997C30.1481 0.599997 32.6481 0.949997 35.2481 1.45C37.8981 1.95 40.4231 2.65 42.8231 3.55C45.2231 4.4 47.1981 5.525 48.7481 6.925C50.3481 8.275 51.2481 9.9 51.4481 11.8C51.5981 13.3 51.1981 14.625 50.2481 15.775C49.2981 16.875 48.0481 17.85 46.4981 18.7C44.9481 19.55 43.2731 20.3 41.4731 20.95C39.6731 21.6 37.9481 22.175 36.2981 22.675C34.6981 23.175 33.3981 23.675 32.3981 24.175C33.9981 24.575 35.5481 25.3 37.0481 26.35C38.5481 27.35 39.7981 28.575 40.7981 30.025C41.8481 31.425 42.4481 32.975 42.5981 34.675C42.7481 36.175 42.1731 37.575 40.8731 38.875C39.6231 40.175 37.8981 41.35 35.6981 42.4C33.5481 43.4 31.1231 44.275 28.4231 45.025C25.7231 45.725 22.9731 46.25 20.1731 46.6C17.4231 47 14.8731 47.2 12.5231 47.2ZM18.0731 24.025H19.8731C20.7731 24.025 22.0981 23.875 23.8481 23.575C25.6481 23.225 27.6481 22.75 29.8481 22.15C32.0981 21.55 34.3731 20.85 36.6731 20.05C38.9731 19.25 41.0731 18.4 42.9731 17.5C44.9231 16.55 46.4731 15.575 47.6231 14.575C48.8231 13.525 49.4231 12.475 49.4231 11.425C49.4231 10.375 48.8731 9.45 47.7731 8.65C46.7231 7.85 45.3481 7.175 43.6481 6.625C41.9981 6.025 40.2481 5.55 38.3981 5.2C36.5481 4.8 34.8231 4.525 33.2231 4.375C31.6731 4.175 30.4731 4.075 29.6231 4.075C29.8231 4.325 30.0231 4.6 30.2231 4.9C30.4231 5.2 30.5481 5.525 30.5981 5.875V6.025C30.5981 6.425 30.4731 6.75 30.2231 7C28.0731 9.75 25.8731 12.475 23.6231 15.175C21.3731 17.875 19.5231 20.825 18.0731 24.025ZM9.89815 44.8C12.1981 44.8 14.6731 44.6 17.3231 44.2C19.9731 43.8 22.5981 43.25 25.1981 42.55C27.7981 41.8 30.1481 40.95 32.2481 40C34.3981 39 36.0981 37.925 37.3481 36.775C38.6481 35.575 39.2981 34.3 39.2981 32.95C39.2981 31.75 38.8731 30.7 38.0231 29.8C37.2231 28.9 36.1981 28.175 34.9481 27.625C33.6981 27.025 32.4231 26.6 31.1231 26.35C29.8231 26.05 28.6981 25.9 27.7481 25.9C26.6981 25.9 25.5981 26.075 24.4481 26.425C23.3481 26.725 22.3231 27.05 21.3731 27.4C20.4231 27.75 19.6481 27.925 19.0481 27.925C18.5481 27.925 18.1231 27.65 17.7731 27.1C17.4231 26.5 17.2481 26 17.2481 25.6C16.0981 27.4 14.9481 29.35 13.7981 31.45C12.6481 33.5 11.6981 35.65 10.9481 37.9C10.1981 40.15 9.84815 42.45 9.89815 44.8ZM49.1044 45.325C46.1044 45.325 44.6044 43.85 44.6044 40.9C44.6044 39.75 44.9044 38.425 45.5044 36.925C46.1544 35.375 47.0044 33.825 48.0544 32.275C49.1044 30.725 50.2794 29.3 51.5794 28C52.8794 26.65 54.2044 25.575 55.5544 24.775C56.9544 23.925 58.2544 23.5 59.4544 23.5C59.8544 23.5 60.1294 23.6 60.2794 23.8C60.4794 23.95 60.6294 24.225 60.7294 24.625C60.8294 24.825 60.9044 25.05 60.9544 25.3C61.0044 25.55 61.0794 25.8 61.1794 26.05C61.3794 26.4 61.5544 26.75 61.7044 27.1C61.8544 27.45 61.9294 27.825 61.9294 28.225C61.9294 28.725 61.8044 29.175 61.5544 29.575C61.3044 29.925 61.0044 30.25 60.6544 30.55C60.1544 31 59.4044 31.575 58.4044 32.275C57.4044 32.925 56.3044 33.6 55.1044 34.3C53.9544 34.95 52.8294 35.525 51.7294 36.025C50.6794 36.525 49.8294 36.825 49.1794 36.925C48.7294 37.625 48.2544 38.5 47.7544 39.55C47.3044 40.55 47.0794 41.475 47.0794 42.325C47.0794 42.775 47.1794 43.175 47.3794 43.525C47.6294 43.875 48.0044 44.05 48.5044 44.05C49.3044 44.05 50.3544 43.675 51.6544 42.925C53.0044 42.125 54.4044 41.175 55.8544 40.075C57.3044 38.925 58.6294 37.825 59.8294 36.775C61.0794 35.675 62.0044 34.825 62.6044 34.225L65.0044 31.675C65.3044 31.375 65.6294 31.225 65.9794 31.225C66.2794 31.225 66.4294 31.35 66.4294 31.6C66.4294 31.9 66.0044 32.525 65.1544 33.475C64.3044 34.375 63.2794 35.4 62.0794 36.55C60.9294 37.65 59.8544 38.675 58.8544 39.625C57.8544 40.525 57.2044 41.1 56.9044 41.35C55.8544 42.25 54.6544 43.15 53.3044 44.05C51.9544 44.9 50.5544 45.325 49.1044 45.325ZM50.4544 34.975C50.9544 34.675 51.7044 34.2 52.7044 33.55C53.7544 32.9 54.8294 32.175 55.9294 31.375C57.0294 30.575 57.9544 29.775 58.7044 28.975C59.5044 28.175 59.9044 27.475 59.9044 26.875C59.9044 26.725 59.8794 26.6 59.8294 26.5C59.7794 26.45 59.6794 26.425 59.5294 26.425C58.8794 26.425 58.1044 26.775 57.2044 27.475C56.3044 28.175 55.4044 29.025 54.5044 30.025C53.6044 30.975 52.7794 31.925 52.0294 32.875C51.3294 33.775 50.8044 34.475 50.4544 34.975ZM67.0124 46.75C66.1624 46.75 65.1374 46.425 63.9374 45.775C62.7374 45.125 61.9124 44.425 61.4624 43.675C61.1624 43.175 61.0124 42.575 61.0124 41.875C61.0124 40.275 61.5874 38.15 62.7374 35.5C63.9374 32.8 65.4374 29.9 67.2374 26.8C68.0374 25.4 69.0624 23.775 70.3124 21.925C71.6124 20.075 73.0624 18.175 74.6624 16.225C76.2624 14.225 77.9374 12.325 79.6874 10.525C81.4874 8.725 83.2624 7.15 85.0124 5.8C86.8124 4.45 88.5124 3.5 90.1124 2.95C90.7624 2.7 91.3374 2.575 91.8374 2.575C92.7874 2.575 93.4374 2.9 93.7874 3.55C94.1874 4.15 94.7124 4.65 95.3624 5.05C95.7624 5.3 95.9624 5.7 95.9624 6.25C95.9624 7.4 95.3374 8.775 94.0874 10.375C92.8374 11.975 91.2124 13.675 89.2124 15.475C87.2124 17.275 85.0624 19.075 82.7624 20.875C80.4624 22.625 78.2374 24.25 76.0874 25.75C73.9874 27.25 72.1874 28.5 70.6874 29.5C69.1874 30.5 68.2374 31.125 67.8374 31.375C67.0874 32.775 66.3874 34.375 65.7374 36.175C65.0874 37.975 64.7624 39.675 64.7624 41.275C64.7624 41.875 64.8374 42.55 64.9874 43.3C65.1874 44 65.6874 44.35 66.4874 44.35C67.2374 44.35 68.1124 44.075 69.1124 43.525C70.1124 42.975 71.0874 42.375 72.0374 41.725C72.9874 41.025 73.7374 40.45 74.2874 40C75.5874 38.95 76.7374 37.875 77.7374 36.775C78.7374 35.675 79.9124 34.425 81.2624 33.025C81.3624 32.925 81.4624 32.85 81.5624 32.8C81.6624 32.7 81.7874 32.65 81.9374 32.65C82.2374 32.65 82.3874 32.825 82.3874 33.175C82.3874 33.475 82.2624 33.75 82.0124 34C80.0124 36.2 77.9124 38.475 75.7124 40.825C73.5624 43.175 71.1624 45.025 68.5124 46.375C68.0124 46.625 67.5124 46.75 67.0124 46.75ZM70.2374 27.475C70.9874 27.225 72.0374 26.625 73.3874 25.675C74.7374 24.675 76.2374 23.5 77.8874 22.15C79.5874 20.8 81.2874 19.375 82.9874 17.875C84.7374 16.325 86.3374 14.85 87.7874 13.45C89.2874 12 90.5124 10.775 91.4624 9.775C92.4624 8.725 93.0374 8 93.1874 7.6C93.2874 7.3 93.3374 7.1 93.3374 7C93.3374 6.6 93.1374 6.325 92.7374 6.175C92.3874 6.025 91.9874 5.95 91.5374 5.95C91.2874 5.95 91.0374 5.975 90.7874 6.025C90.5374 6.075 90.3124 6.125 90.1124 6.175C89.2624 6.475 88.1374 7.225 86.7374 8.425C85.3374 9.575 83.8374 11 82.2374 12.7C80.6374 14.35 79.0374 16.1 77.4374 17.95C75.8874 19.8 74.4624 21.575 73.1624 23.275C71.9124 24.925 70.9374 26.325 70.2374 27.475ZM85.8626 48.325C84.9126 48.325 84.4376 47.35 84.4376 45.4C84.4376 44.45 84.8626 42.95 85.7126 40.9C86.5626 38.8 87.6876 36.375 89.0876 33.625C90.5376 30.825 92.1626 27.925 93.9626 24.925C95.7626 21.875 97.6126 18.9 99.5126 16C101.413 13.1 103.238 10.475 104.988 8.125C106.738 5.725 108.313 3.825 109.713 2.425C111.113 1.025 112.188 0.324998 112.938 0.324998C113.288 0.324998 113.763 0.499997 114.363 0.849996C114.963 1.2 115.513 1.6 116.013 2.05C116.513 2.5 116.763 2.9 116.763 3.25C116.763 4.15 116.638 5.125 116.388 6.175C116.188 7.175 116.013 8.125 115.863 9.025C115.763 9.525 115.563 10.65 115.263 12.4C114.963 14.1 114.663 16.075 114.363 18.325C114.113 20.525 113.988 22.625 113.988 24.625C113.988 26.525 114.188 28.15 114.588 29.5C114.988 30.85 115.713 31.525 116.763 31.525C118.113 31.525 119.763 30.9 121.713 29.65C123.663 28.4 125.738 26.8 127.938 24.85C130.188 22.85 132.413 20.75 134.613 18.55C136.863 16.3 138.913 14.2 140.763 12.25C142.663 10.25 144.238 8.625 145.488 7.375C146.788 6.125 147.563 5.5 147.813 5.5C147.963 5.5 148.038 5.6 148.038 5.8C148.038 6.2 147.863 6.7 147.513 7.3C146.913 8.45 145.963 9.9 144.663 11.65C143.413 13.35 141.938 15.2 140.238 17.2C138.538 19.2 136.713 21.175 134.763 23.125C132.863 25.075 130.938 26.85 128.988 28.45C127.038 30.05 125.163 31.35 123.363 32.35C121.563 33.3 119.938 33.775 118.488 33.775C116.188 33.775 114.438 33.15 113.238 31.9C112.038 30.6 111.213 28.95 110.763 26.95C110.313 24.9 110.088 22.775 110.088 20.575C110.088 18.025 110.213 15.825 110.463 13.975C110.713 12.075 111.013 9.925 111.363 7.525C109.113 9.875 106.688 12.65 104.088 15.85C101.538 19 99.0626 22.375 96.6626 25.975C94.3126 29.575 92.2626 33.2 90.5126 36.85C88.7626 40.45 87.5876 43.875 86.9876 47.125C86.9376 47.425 86.8376 47.7 86.6876 47.95C86.5376 48.2 86.2626 48.325 85.8626 48.325ZM139.263 45.925C138.163 45.925 137.438 45.4 137.088 44.35C136.788 43.3 136.638 42.35 136.638 41.5C136.638 40.55 136.863 39.125 137.313 37.225C137.813 35.275 138.463 33.05 139.263 30.55C140.063 28.05 140.963 25.45 141.963 22.75C143.013 20 144.113 17.325 145.263 14.725C146.463 12.125 147.638 9.8 148.788 7.75C149.938 5.65 151.038 3.975 152.088 2.725C153.138 1.475 154.063 0.849996 154.863 0.849996C155.263 0.849996 155.888 1.05 156.738 1.45C157.588 1.85 158.013 2.325 158.013 2.875C158.013 3.025 157.563 3.8 156.663 5.2C155.763 6.55 154.588 8.325 153.138 10.525C151.738 12.725 150.238 15.175 148.638 17.875C147.038 20.525 145.513 23.275 144.063 26.125C142.663 28.975 141.513 31.725 140.613 34.375C139.713 36.975 139.263 39.3 139.263 41.35V41.95C139.263 42.3 139.313 42.65 139.413 43C139.513 43.3 139.738 43.45 140.088 43.45C140.688 43.45 140.988 43.75 140.988 44.35C140.988 44.7 140.838 45.05 140.538 45.4C140.238 45.75 139.813 45.925 139.263 45.925ZM150.686 46.825C149.236 46.825 148.161 46.25 147.461 45.1C146.761 43.9 146.411 42.675 146.411 41.425C146.411 39.725 146.861 37.9 147.761 35.95C148.661 33.95 149.736 32.05 150.986 30.25C152.286 28.45 153.436 26.975 154.436 25.825C154.686 25.525 155.011 25.375 155.411 25.375C155.861 25.375 156.311 25.55 156.761 25.9C157.811 25.15 159.011 24.475 160.361 23.875C161.761 23.275 163.111 22.975 164.411 22.975C166.661 22.975 167.786 24.125 167.786 26.425C167.786 28.625 167.236 30.65 166.136 32.5C165.086 34.35 163.911 36.15 162.611 37.9C162.261 38.35 161.911 38.775 161.561 39.175C161.261 39.575 160.911 39.975 160.511 40.375C162.711 39.775 164.636 38.775 166.286 37.375C167.936 35.975 169.561 34.525 171.161 33.025C171.361 32.825 171.536 32.675 171.686 32.575C171.886 32.425 172.136 32.35 172.436 32.35C172.686 32.35 172.811 32.525 172.811 32.875C172.811 32.925 172.736 33.05 172.586 33.25C172.436 33.45 172.336 33.6 172.286 33.7C170.636 35.7 168.586 37.575 166.136 39.325C163.736 41.025 161.211 42.075 158.561 42.475C157.611 43.425 156.411 44.4 154.961 45.4C153.511 46.35 152.086 46.825 150.686 46.825ZM156.536 40.9C156.736 40.9 156.911 40.9 157.061 40.9C157.261 40.9 157.461 40.875 157.661 40.825C158.661 39.625 159.686 38.2 160.736 36.55C161.836 34.9 162.761 33.2 163.511 31.45C164.261 29.65 164.636 28.025 164.636 26.575C164.636 25.675 164.211 25.225 163.361 25.225C162.511 25.225 161.536 25.475 160.436 25.975C159.336 26.475 158.411 27 157.661 27.55V27.775C157.661 28.275 157.261 29 156.461 29.95C155.711 30.85 154.886 31.775 153.986 32.725C153.136 33.675 152.511 34.475 152.111 35.125C151.961 36.775 152.286 38.15 153.086 39.25C153.886 40.35 155.036 40.9 156.536 40.9ZM150.761 45.55C151.711 45.55 152.636 45.2 153.536 44.5C154.486 43.8 155.286 43.15 155.936 42.55C154.736 42.45 153.636 42.05 152.636 41.35C151.686 40.6 150.811 39.775 150.011 38.875C149.861 39.175 149.661 39.75 149.411 40.6C149.161 41.45 149.036 42.3 149.036 43.15C149.036 43.8 149.161 44.375 149.411 44.875C149.661 45.325 150.111 45.55 150.761 45.55ZM172.434 47.8C171.084 47.8 169.984 47.6 169.134 47.2C168.334 46.8 167.934 46.275 167.934 45.625C167.934 44.475 168.284 43.275 168.984 42.025C169.734 40.775 170.284 39.8 170.634 39.1C171.834 36.85 173.309 34.325 175.059 31.525C176.859 28.675 178.809 25.8 180.909 22.9C183.059 19.95 185.309 17.175 187.659 14.575C190.059 11.925 192.484 9.675 194.934 7.825C195.584 7.275 196.209 6.8 196.809 6.4C197.459 6 197.884 5.8 198.084 5.8C198.534 5.85 198.934 6.125 199.284 6.625C199.684 7.125 199.884 7.625 199.884 8.125C199.884 8.525 199.534 9 198.834 9.55C198.534 9.75 198.084 10.075 197.484 10.525C196.884 10.975 196.309 11.45 195.759 11.95C193.409 13.95 191.009 16.225 188.559 18.775C186.109 21.275 183.734 23.975 181.434 26.875C179.184 29.775 177.184 32.775 175.434 35.875C176.234 35.125 177.209 34.2 178.359 33.1C179.559 32 180.834 30.85 182.184 29.65C183.534 28.45 184.834 27.35 186.084 26.35C187.334 25.3 188.434 24.45 189.384 23.8C190.334 23.15 190.984 22.825 191.334 22.825C192.184 22.825 192.959 23.3 193.659 24.25C194.059 24.85 194.284 25.375 194.334 25.825C194.434 26.275 194.484 26.725 194.484 27.175C194.484 28.825 193.859 30.75 192.609 32.95C191.359 35.1 189.909 37.15 188.259 39.1C187.109 40.5 185.634 41.875 183.834 43.225C182.084 44.525 180.209 45.6 178.209 46.45C176.209 47.35 174.284 47.8 172.434 47.8ZM174.459 45.55C176.009 45.55 177.534 45.025 179.034 43.975C180.584 42.875 182.009 41.6 183.309 40.15C184.609 38.7 185.659 37.4 186.459 36.25C187.059 35.45 187.634 34.525 188.184 33.475C188.784 32.375 189.259 31.325 189.609 30.325C190.009 29.275 190.209 28.45 190.209 27.85C190.209 27.2 189.959 26.875 189.459 26.875C188.709 26.875 187.709 27.325 186.459 28.225C185.209 29.125 183.909 30.2 182.559 31.45C181.209 32.7 179.959 33.9 178.809 35.05C177.659 36.2 176.834 37.025 176.334 37.525C173.034 40.725 171.384 42.85 171.384 43.9C171.384 45 172.409 45.55 174.459 45.55Z" fill="#562551"/>
</svg>
